<?xml version='1.0' encoding='us-ascii'?>
<svg height="81.90mm" viewBox="0.0 0.0 120.10 81.90" width="120.10mm"
xmlns="http://www.w3.org/2000/svg" xmlns:cc="http://creativecommons.org/ns#"
xmlns:dc="http://purl.org/dc/elements/1.1/"
xmlns:inkscape="http://www.inkscape.org/namespaces/inkscape"
xmlns:rdf="http://www.w3.org/1999/02/22-rdf-syntax-ns#"
xmlns:svg="http://www.w3.org/2000/svg/"
xmlns:xlink="http://www.w3.org/1999/xlink/">
<g id="floor" style="fill:none;stroke-linecap:round;stroke-linejoin:round;">
<path d="M 3.0 3.0 h 25.4 v 6.25 h 10.16 v -6.25 h 10.16 v 6.25 h 10.16 v -6.25 h 10.16 v 6.25 h 10.16 v -6.25 h 25.4 v 31.75 h -6.25 v 12.7 h 6.25 v 12.7 h -6.25 v 12.7 h 6.25 v 12.7 h -6.25 v 12.7 h 6.25 v 31.75 h -25.4 v -6.25 h -10.16 v 6.25 h -10.16 v -6.25 h -10.16 v 6.25 h -10.16 v -6.25 h -10.16 v 6.25 h -25.4 v -31.75 h 6.25 v -12.7 h -6.25 v -12.7 h 6.25 v -12.7 h -6.25 v -12.7 h 6.25 v -12.7 h -6.25 v -31.75 " stroke="rgb(0,0,0)" stroke-width="0.20" />
</g>
<g id="length1" style="fill:none;stroke-linecap:round;stroke-linejoin:round;">
<path d="M 3.0 135.0 h 38.099999999999994 v 6.25 h 15.239999999999998 v -6.25 h 15.239999999999998 v 6.25 h 15.239999999999998 v -6.25 h 15.239999999999998 v 6.25 h 15.239999999999998 v -6.25 h 38.099999999999994 M 155.39999999999998 135.0 C 171.27499999999998 135.0, 171.27499999999998 150.875, 155.39999999999998 150.875 v 111.125 h -38.099999999999994 v -6.25 h -15.239999999999998 v 6.25 h -15.239999999999998 v -6.25 h -15.239999999999998 v 6.25 h -15.239999999999998 v -6.25 h -15.239999999999998 v 6.25 h -38.099999999999994 v -31.75 h -6.25 v -12.7 h 6.25 v -12.7 h -6.25 v -12.7 h 6.25 v -12.7 h -6.25 v -12.7 h 6.25 v -31.75 " stroke="rgb(0,0,0)" stroke-width="0.20" />
</g>
<circle cx="160.16249999999997" cy="142.9375" r="2.93076923076923" /><g id="length2" style="fill:none;stroke-linecap:round;stroke-linejoin:round;">
<path d="M 165.39999999999998 3.0 h 38.099999999999994 v 6.25 h 15.239999999999998 v -6.25 h 15.239999999999998 v 6.25 h 15.239999999999998 v -6.25 h 15.239999999999998 v 6.25 h 15.239999999999998 v -6.25 h 38.099999999999994 M 317.79999999999995 3.0 C 333.67499999999995 3.0, 333.67499999999995 18.875, 317.79999999999995 18.875 v 111.125 h -38.099999999999994 v -6.25 h -15.239999999999998 v 6.25 h -15.239999999999998 v -6.25 h -15.239999999999998 v 6.25 h -15.239999999999998 v -6.25 h -15.239999999999998 v 6.25 h -38.099999999999994 v -31.75 h -6.25 v -12.7 h 6.25 v -12.7 h -6.25 v -12.7 h 6.25 v -12.7 h -6.25 v -12.7 h 6.25 v -31.75 " stroke="rgb(0,0,0)" stroke-width="0.20" />
</g>
<circle cx="322.56249999999994" cy="10.9375" r="2.93076923076923" /><g id="width1" style="fill:none;stroke-linecap:round;stroke-linejoin:round;">
<path d="M 165.39999999999998 135.0 h 38.099999999999994 v -6.25 h 15.239999999999998 v 6.25 h 15.239999999999998 v -6.25 h 15.239999999999998 v 6.25 h 15.239999999999998 v -6.25 h 15.239999999999998 v 6.25 h 38.099999999999994 v  101.6 h -38.099999999999994 v 6.25 h -15.239999999999998 v -6.25 h -15.239999999999998 v 6.25 h -15.239999999999998 v -6.25 h -15.239999999999998 v 6.25 h -15.239999999999998 v -6.25 h -38.099999999999994 v -25.4 h -6.25 v -10.16 h 6.25 v -10.16 h -6.25 v -10.16 h 6.25 v -10.16 h -6.25 v -10.16 h 6.25 v -25.4 " stroke="rgb(0,0,0)" stroke-width="0.20" />
</g>
<g id="width2" style="fill:none;stroke-linecap:round;stroke-linejoin:round;">
<path d="M 327.79999999999995 3.0 h 38.099999999999994 v -6.25 h 15.239999999999998 v 6.25 h 15.239999999999998 v -6.25 h 15.239999999999998 v 6.25 h 15.239999999999998 v -6.25 h 15.239999999999998 v 6.25 h 38.099999999999994 v  101.6 h -38.099999999999994 v 6.25 h -15.239999999999998 v -6.25 h -15.239999999999998 v 6.25 h -15.239999999999998 v -6.25 h -15.239999999999998 v 6.25 h -15.239999999999998 v -6.25 h -38.099999999999994 v -25.4 h -6.25 v -10.16 h 6.25 v -10.16 h -6.25 v -10.16 h 6.25 v -10.16 h -6.25 v -10.16 h 6.25 v -25.4 " stroke="rgb(0,0,0)" stroke-width="0.20" />
</g>
<g id="floor" style="fill:none;stroke-linecap:round;stroke-linejoin:round;">
<path d="M 327.79999999999995 109.6 h 101.6 v 2.93076923076923 h -6.25 v 3.175 h 6.25 v 120.89423076923077 h -101.6 v -120.89423076923077 h 6.25 v -3.175 h -6.25 v -2.93076923076923 " stroke="rgb(0,0,0)" stroke-width="0.20" />
</g>
</svg>